<?xml version="1.0" standalone="no"?>
<!DOCTYPE svg PUBLIC "-//W3C//DTD SVG 20010904//EN"
 "http://www.w3.org/TR/2001/REC-SVG-20010904/DTD/svg10.dtd">
<svg version="1.0" xmlns="http://www.w3.org/2000/svg"
 width="691.000000pt" height="691.000000pt" viewBox="0 0 691.000000 691.000000"
 preserveAspectRatio="xMidYMid meet">

<g transform="translate(0.000000,691.000000) scale(0.100000,-0.100000)"
fill="#000000" stroke="none">
<path d="M4185 5964 c-181 -18 -389 -74 -535 -143 l-65 -31 -1470 0 c-1449 0
-1470 0 -1503 -20 -70 -43 -92 -128 -49 -190 49 -74 -10 -69 900 -73 l816 -3
36 -37 c43 -45 77 -54 265 -76 130 -15 140 -18 96 -24 -27 -4 -163 -7 -303 -7
-272 0 -293 -3 -327 -52 -9 -12 -16 -41 -16 -64 0 -34 6 -49 31 -73 l31 -31
651 0 c631 0 654 -1 689 -20 l37 -20 223 101 c199 90 225 99 248 89 19 -9 370
-198 376 -204 5 -3 105 -547 107 -577 2 -34 -9 -48 -182 -238 l-184 -202 -56
6 c-31 3 -141 10 -246 15 -314 17 -278 6 -363 114 -104 133 -103 133 -141 101
-17 -15 -31 -31 -31 -35 0 -5 38 -57 85 -115 71 -91 85 -114 90 -153 11 -95
44 -230 78 -322 20 -52 35 -95 34 -97 -5 -4 -76 91 -142 189 -71 104 -182 326
-211 422 -11 33 -27 64 -39 71 -14 9 -86 15 -230 18 -139 4 -275 14 -405 31
-107 14 -212 26 -233 26 -23 0 -36 4 -32 10 4 6 180 10 494 10 493 0 542 3
555 37 3 8 13 72 21 143 18 155 36 251 71 378 23 87 24 97 10 108 -19 13
-2506 32 -2617 19 -35 -4 -77 -14 -92 -22 -63 -32 -87 -134 -48 -199 40 -66 9
-64 834 -64 l744 0 27 -40 c26 -40 90 -88 123 -92 10 -2 -293 -5 -672 -8 -768
-6 -721 -1 -766 -73 -27 -43 -21 -117 12 -153 56 -61 42 -59 545 -59 l461 0
27 -51 c17 -33 41 -59 67 -75 22 -13 47 -29 57 -36 13 -10 -80 -12 -448 -13
-446 0 -466 -1 -498 -20 -97 -59 -93 -185 8 -244 34 -20 54 -21 480 -26 388
-4 449 -7 471 -21 13 -9 42 -49 64 -89 48 -87 128 -173 187 -200 40 -18 67
-20 423 -20 l380 0 33 -40 33 -40 -55 0 c-83 0 -145 -32 -166 -86 -8 -20 -18
-22 -147 -28 -623 -31 -1077 -114 -1793 -328 -241 -72 -287 -93 -314 -146 -28
-56 -29 -89 -3 -144 27 -57 160 -220 316 -388 l98 -105 79 -5 c123 -7 274 -5
326 3 55 9 78 28 78 62 0 31 -25 44 -150 79 -139 40 -187 72 -337 226 -129
132 -132 135 -105 142 37 10 541 86 622 93 36 3 75 8 86 10 23 5 23 6 40 -131
l6 -51 -83 -7 c-59 -5 -84 -3 -90 5 -11 19 -289 -20 -289 -40 0 -13 32 -51 52
-62 12 -7 90 -29 172 -50 159 -41 189 -56 220 -108 27 -47 24 -148 -6 -209
-41 -82 -69 -92 -393 -142 -110 -17 -210 -34 -222 -37 -19 -4 -2 -22 115 -124
l137 -120 60 6 c33 3 69 8 80 11 15 3 50 -22 130 -92 299 -264 621 -462 1025
-632 237 -99 677 -242 749 -242 16 0 103 22 193 50 662 201 1127 446 1563 824
l100 87 67 -6 67 -6 140 118 c77 65 137 121 132 126 -4 4 -74 14 -157 23 -82
8 -150 16 -150 17 -17 20 -185 285 -189 298 -5 14 -16 19 -41 19 l-34 0 0
-142 0 -143 -75 3 -75 4 0 374 0 374 23 0 c76 0 732 -79 804 -97 22 -5 22 -6
-10 -42 -253 -292 -283 -319 -368 -330 l-52 -6 62 -92 c34 -51 64 -93 65 -93
2 0 25 12 51 27 31 17 65 27 97 28 40 1 54 7 84 36 79 75 310 348 367 434 48
70 27 175 -44 227 -38 29 -389 134 -723 218 l-189 47 79 58 c293 215 506 561
581 940 13 67 18 137 17 275 0 164 -3 197 -26 297 -94 399 -331 737 -673 959
-166 108 -366 186 -555 218 -97 16 -313 27 -385 20z m430 -228 c161 -42 146
-27 178 -179 15 -72 27 -139 27 -147 -1 -9 -83 -55 -216 -120 -118 -58 -222
-106 -230 -108 -20 -5 -414 208 -414 224 0 19 61 328 66 333 16 17 160 29 314
27 151 -3 189 -7 275 -30z m459 -213 c107 -76 268 -239 334 -338 28 -43 52
-85 52 -92 0 -12 -45 -28 -111 -39 -33 -6 -41 -2 -100 53 -35 32 -116 104
-179 160 -63 55 -123 109 -132 120 -10 11 -26 65 -38 126 -12 59 -23 114 -27
122 -7 19 93 -37 201 -112z m474 -600 c82 -214 106 -516 55 -708 l-19 -70 -84
-46 c-132 -72 -119 -75 -183 39 -31 54 -72 131 -91 171 l-35 73 23 62 c36 95
72 229 101 371 15 71 28 131 30 133 4 4 141 30 165 31 10 1 24 -20 38 -56z
m-752 -553 c142 -16 268 -32 280 -35 14 -3 40 -40 81 -117 75 -139 123 -242
123 -263 0 -43 -200 -329 -316 -453 l-59 -63 -265 11 c-178 8 -269 15 -277 23
-21 21 -223 498 -223 527 0 7 35 51 78 99 239 266 274 301 296 301 13 0 139
-13 282 -30z m-48 -1023 c106 -3 196 -8 200 -12 22 -21 -137 -90 -303 -131
-122 -30 -476 -27 -532 5 -11 5 15 25 89 68 159 94 145 89 255 81 54 -4 185
-9 291 -11z m-1602 -506 c47 -21 84 -68 87 -108 2 -32 -24 -48 -106 -65 -51
-11 -54 -10 -79 15 -14 14 -42 29 -62 33 -59 11 -144 0 -174 -23 l-27 -20 -3
-164 c-1 -90 0 -174 3 -187 16 -66 213 -70 264 -6 20 25 23 26 101 19 44 -4
83 -11 86 -17 12 -19 -28 -97 -66 -132 -55 -50 -99 -58 -280 -54 -147 3 -159
4 -193 28 -20 13 -45 42 -57 62 -20 35 -21 51 -20 274 0 261 3 272 64 319 51
39 76 43 256 44 140 0 171 -2 206 -18z m750 -4 c44 -23 81 -70 95 -119 13 -51
10 -53 -84 -63 -56 -5 -73 -4 -82 7 -32 44 -110 64 -190 49 -81 -15 -85 -25
-85 -218 l0 -165 29 -29 c27 -27 35 -29 106 -29 80 0 110 9 136 42 14 19 20
19 97 8 93 -14 97 -21 62 -89 -44 -88 -94 -104 -305 -99 -183 3 -212 14 -253
86 -21 38 -22 50 -22 283 0 221 2 247 19 272 46 70 110 88 301 84 111 -3 152
-7 176 -20z m882 7 c20 -4 22 -10 22 -80 l0 -76 -240 7 -240 8 0 -70 0 -70 31
-7 c17 -3 74 -6 125 -6 l94 0 0 -70 0 -70 -125 0 -125 0 0 -69 0 -69 53 -5
c28 -4 143 -9 255 -13 180 -6 202 -8 198 -23 -3 -9 -8 -42 -12 -75 l-7 -59
-76 7 c-42 3 -187 9 -323 12 l-248 7 0 367 0 366 298 -3 c163 -2 307 -6 320
-9z m-2418 -46 c56 -29 87 -74 95 -141 4 -29 5 -136 3 -239 l-3 -186 -31 -38
c-54 -67 -90 -79 -244 -79 -124 0 -138 2 -167 23 -17 12 -41 42 -53 67 -20 42
-21 56 -18 262 3 245 8 263 77 308 47 31 101 42 211 44 70 1 94 -3 130 -21z
m-77 -1014 c240 -146 558 -286 918 -404 249 -81 221 -79 394 -25 372 116 737
273 977 422 100 62 72 59 286 32 56 -7 102 -16 102 -19 0 -19 -224 -175 -390
-272 -276 -162 -660 -322 -1039 -433 l-93 -27 -97 27 c-244 70 -580 196 -796
301 -231 111 -523 291 -620 381 l-29 28 44 7 c25 4 86 13 135 21 50 8 96 15
103 16 7 1 54 -24 105 -55z"/>
<path d="M2195 2675 c-5 -2 -22 -6 -38 -9 -15 -4 -36 -15 -47 -26 -18 -18 -20
-34 -20 -180 0 -146 2 -162 20 -180 38 -38 114 -38 164 1 l26 20 0 168 c0 147
-2 170 -17 183 -18 16 -70 29 -88 23z"/>
<path d="M5130 2606 l0 -65 53 -5 c28 -3 98 -8 153 -11 l102 -6 41 47 c22 26
41 50 41 55 0 10 -33 16 -200 34 -206 23 -190 27 -190 -49z"/>
</g>
</svg>
